<?xml version="1.0" standalone="no"?>
<!DOCTYPE svg PUBLIC "-//W3C//DTD SVG 20010904//EN"
 "http://www.w3.org/TR/2001/REC-SVG-20010904/DTD/svg10.dtd">
<svg version="1.0" xmlns="http://www.w3.org/2000/svg"
 width="374.000000pt" height="135.000000pt" viewBox="0 0 374.000000 135.000000"
 preserveAspectRatio="xMidYMid meet">

<g transform="translate(0.000000,135.000000) scale(0.100000,-0.100000)"
fill="#000000" stroke="none">
<path d="M461 1297 l-25 -32 32 29 c33 31 37 36 25 35 -5 0 -19 -14 -32 -32z"/>
<path d="M553 1238 c28 -41 60 -85 70 -98 18 -25 18 -25 1 5 -25 44 -103 153
-114 160 -6 3 14 -27 43 -67z"/>
<path d="M410 1230 c-12 -16 -19 -30 -16 -30 2 0 14 14 26 30 12 17 19 30 16
30 -2 0 -14 -13 -26 -30z"/>
<path d="M481 1218 c2 -2 18 -14 34 -28 l30 -25 -24 28 c-14 15 -29 27 -34 27
-6 0 -8 -1 -6 -2z"/>
<path d="M449 1183 c-13 -16 -12 -17 4 -4 9 7 17 15 17 17 0 8 -8 3 -21 -13z"/>
<path d="M350 1140 c-6 -11 -8 -20 -6 -20 3 0 10 9 16 20 6 11 8 20 6 20 -3 0
-10 -9 -16 -20z"/>
<path d="M423 1148 c-15 -20 -25 -38 -20 -38 3 0 12 11 21 25 17 26 16 35 -1
13z"/>
<path d="M569 1115 c5 -11 17 -29 26 -40 l16 -20 -10 20 c-5 11 -17 29 -26 40
l-16 20 10 -20z"/>
<path d="M320 1090 c-6 -11 -8 -20 -6 -20 3 0 10 9 16 20 6 11 8 20 6 20 -3 0
-10 -9 -16 -20z"/>
<path d="M655 1080 c9 -16 18 -30 21 -30 2 0 -2 14 -11 30 -9 17 -18 30 -21
30 -2 0 2 -13 11 -30z"/>
<path d="M380 1080 c-6 -11 -8 -20 -6 -20 3 0 10 9 16 20 6 11 8 20 6 20 -3 0
-10 -9 -16 -20z"/>
<path d="M632 1005 c12 -24 23 -43 26 -41 4 5 -36 86 -43 86 -3 0 5 -20 17
-45z"/>
<path d="M285 1029 c-4 -6 -5 -12 -2 -15 2 -3 7 2 10 11 7 17 1 20 -8 4z"/>
<path d="M330 989 c-12 -23 -20 -43 -18 -45 3 -2 14 17 26 41 27 56 20 60 -8
4z"/>
<path d="M252 955 c-17 -37 -14 -45 4 -12 9 16 14 31 11 33 -2 2 -9 -7 -15
-21z"/>
<path d="M711 975 c0 -5 6 -21 14 -35 8 -14 14 -20 14 -15 0 6 -6 21 -14 35
-8 14 -14 21 -14 15z"/>
<path d="M661 945 c0 -5 6 -21 14 -35 8 -14 14 -20 14 -15 0 6 -6 21 -14 35
-8 14 -14 21 -14 15z"/>
<path d="M296 915 c-9 -26 -7 -32 5 -12 6 10 9 21 6 23 -2 3 -7 -2 -11 -11z"/>
<path d="M1110 745 l0 -185 38 2 c36 1 36 1 5 5 l-33 4 0 174 0 174 103 4 102
3 -107 2 -108 2 0 -185z"/>
<path d="M2110 745 l0 -185 33 1 c30 2 30 2 5 6 l-28 4 0 174 0 174 28 4 c25
4 25 4 -5 6 l-33 1 0 -185z"/>
<path d="M2900 923 c0 -5 22 -6 49 -5 l50 4 12 -41 c7 -23 14 -39 16 -37 3 2
-1 22 -8 45 l-12 41 -54 0 c-29 0 -53 -3 -53 -7z"/>
<path d="M3171 889 c-7 -23 -11 -43 -8 -45 2 -2 9 14 16 36 11 39 13 40 56 40
l45 0 0 -174 0 -175 -32 -4 c-32 -4 -32 -4 5 -5 l37 -2 0 185 0 185 -53 0 -54
0 -12 -41z"/>
<path d="M3463 920 c-13 -5 -23 -12 -23 -15 0 -4 5 -3 12 1 7 4 42 11 78 14
l65 7 -55 1 c-30 0 -65 -3 -77 -8z"/>
<path d="M1345 910 c31 -12 48 -38 56 -83 l6 -42 2 37 c1 41 -38 98 -67 97
-13 0 -12 -2 3 -9z"/>
<path d="M3600 916 c0 -2 7 -7 16 -10 8 -3 12 -2 9 4 -6 10 -25 14 -25 6z"/>
<path d="M221 879 c-6 -18 -11 -37 -10 -43 0 -6 7 7 15 28 8 22 12 41 10 43
-2 2 -9 -10 -15 -28z"/>
<path d="M2752 893 c23 -4 27 -10 30 -41 2 -30 8 -38 26 -40 12 -2 22 -7 22
-12 0 -5 -10 -10 -22 -12 -21 -3 -23 -9 -26 -81 -3 -77 6 -107 32 -107 6 0 3
5 -6 11 -15 8 -18 24 -18 89 0 79 0 80 25 80 18 0 25 5 25 20 0 15 -7 20 -25
20 -22 0 -25 4 -25 40 0 39 -1 40 -32 39 -30 -2 -30 -2 -6 -6z"/>
<path d="M3408 883 c-18 -21 -31 -43 -25 -43 2 0 13 14 25 30 25 33 24 41 0
13z"/>
<path d="M3655 880 c10 -11 20 -20 23 -20 3 0 -3 9 -13 20 -10 11 -20 20 -23
20 -3 0 3 -9 13 -20z"/>
<path d="M271 839 c-7 -22 -11 -43 -8 -45 2 -2 9 14 16 37 7 22 11 43 8 45 -2
2 -9 -14 -16 -37z"/>
<path d="M752 875 c0 -5 6 -26 13 -45 7 -19 14 -28 14 -20 0 8 -6 29 -14 45
-7 17 -13 26 -13 20z"/>
<path d="M1218 873 c18 -2 45 -2 60 0 15 2 0 4 -33 4 -33 0 -45 -2 -27 -4z"/>
<path d="M3508 873 c7 -3 16 -2 19 1 4 3 -2 6 -13 5 -11 0 -14 -3 -6 -6z"/>
<path d="M3564 870 c15 -5 36 -15 45 -22 9 -7 6 -3 -7 10 -13 12 -33 22 -45
21 -18 -1 -17 -2 7 -9z"/>
<path d="M1310 866 c0 -2 8 -10 18 -17 15 -13 16 -12 3 4 -13 16 -21 21 -21
13z"/>
<path d="M3456 839 c-14 -17 -26 -38 -25 -47 0 -11 4 -8 10 8 6 14 20 35 31
47 12 13 19 23 16 23 -4 0 -18 -14 -32 -31z"/>
<path d="M1173 810 c0 -30 2 -43 4 -27 2 15 2 39 0 55 -2 15 -4 2 -4 -28z"/>
<path d="M577 832 c-10 -10 -17 -28 -17 -40 0 -15 -10 -27 -32 -37 -24 -10
-26 -13 -8 -9 35 9 50 23 50 48 0 12 5 27 12 34 16 16 60 15 78 0 12 -11 12
-10 1 5 -17 22 -63 22 -84 -1z"/>
<path d="M329 813 c-11 -15 -11 -16 1 -5 21 18 40 15 50 -10 5 -14 9 -17 9 -7
1 18 -18 39 -35 39 -6 0 -18 -8 -25 -17z"/>
<path d="M1337 802 c-4 -21 -15 -36 -29 -42 -17 -6 -19 -9 -6 -9 22 -1 51 42
46 66 -3 12 -6 6 -11 -15z"/>
<path d="M1553 820 c-13 -5 -23 -12 -23 -15 0 -4 5 -3 11 0 5 4 31 10 57 15
41 7 43 8 12 8 -19 0 -45 -3 -57 -8z"/>
<path d="M1913 823 c9 -2 25 -2 35 0 9 3 1 5 -18 5 -19 0 -27 -2 -17 -5z"/>
<path d="M2472 821 c-8 -5 7 -6 36 -3 58 5 86 -7 112 -51 11 -18 20 -26 20
-18 0 7 -15 28 -34 47 -28 28 -41 34 -77 34 -24 0 -50 -4 -57 -9z"/>
<path d="M711 804 c0 -11 3 -14 6 -6 3 7 2 16 -1 19 -3 4 -6 -2 -5 -13z"/>
<path d="M1681 797 c19 -13 39 -38 46 -57 10 -28 12 -30 12 -11 1 24 -57 91
-79 91 -7 0 2 -10 21 -23z"/>
<path d="M2225 768 l-50 -53 50 48 c32 29 60 47 75 47 23 0 22 -2 -15 -40 -21
-22 -37 -40 -34 -40 3 0 25 20 49 45 l44 45 -35 0 c-29 0 -43 -9 -84 -52z"/>
<path d="M2680 800 c0 -14 6 -20 23 -19 16 1 18 2 5 6 -10 2 -18 8 -18 13 0 5
8 11 18 13 13 4 11 5 -5 6 -17 1 -23 -5 -23 -19z"/>
<path d="M671 792 c-1 -14 -13 -30 -33 -42 -18 -11 -28 -20 -21 -20 24 0 65
45 60 65 -4 18 -5 17 -6 -3z"/>
<path d="M1826 779 c-14 -17 -26 -40 -25 -52 1 -18 2 -17 9 7 5 16 19 39 31
52 12 13 20 24 17 24 -4 0 -18 -14 -32 -31z"/>
<path d="M2017 790 c7 -8 16 -27 22 -40 6 -17 10 -19 10 -8 1 9 -9 27 -21 40
-13 13 -18 17 -11 8z"/>
<path d="M2421 784 c-12 -15 -21 -32 -21 -38 0 -6 6 -2 12 9 6 11 18 28 26 38
8 9 12 17 9 17 -3 0 -15 -12 -26 -26z"/>
<path d="M2986 790 c3 -14 11 -32 16 -40 6 -10 7 -7 2 10 -3 14 -11 32 -16 40
-6 10 -7 7 -2 -10z"/>
<path d="M3702 790 c0 -14 2 -19 5 -12 2 6 2 18 0 25 -3 6 -5 1 -5 -13z"/>
<path d="M3046 780 c4 -14 13 -38 20 -55 11 -24 13 -25 8 -5 -4 14 -13 39 -20
55 -11 24 -13 25 -8 5z"/>
<path d="M3363 745 c0 -33 2 -45 4 -27 2 18 2 45 0 60 -2 15 -4 0 -4 -33z"/>
<path d="M3642 775 c0 -16 2 -22 5 -12 2 9 2 23 0 30 -3 6 -5 -1 -5 -18z"/>
<path d="M185 750 c-4 -23 -5 -43 -2 -46 2 -3 7 14 11 37 4 23 5 44 2 46 -2 2
-7 -14 -11 -37z"/>
<path d="M782 775 c0 -11 4 -33 8 -50 7 -27 8 -27 8 -5 0 14 -4 36 -8 50 -6
20 -8 21 -8 5z"/>
<path d="M1564 774 c-10 -8 -13 -12 -5 -8 8 4 28 11 45 15 29 6 29 7 5 8 -14
1 -34 -6 -45 -15z"/>
<path d="M1880 770 c-11 -11 -20 -26 -20 -32 0 -7 6 -4 12 7 6 11 16 23 22 27
19 13 59 8 80 -9 21 -18 21 -18 2 5 -24 28 -69 29 -96 2z"/>
<path d="M2474 774 c-10 -8 -12 -12 -4 -8 8 4 30 11 50 15 35 7 35 7 4 8 -16
0 -39 -6 -50 -15z"/>
<path d="M3161 699 c-17 -51 -29 -94 -27 -96 2 -2 18 37 35 88 17 51 29 94 27
96 -2 2 -18 -37 -35 -88z"/>
<path d="M251 764 c0 -11 3 -14 6 -6 3 7 2 16 -1 19 -3 4 -6 -2 -5 -13z"/>
<path d="M320 773 c0 -4 14 -16 30 -25 39 -22 39 -15 0 12 -16 12 -30 18 -30
13z"/>
<path d="M722 760 c0 -14 2 -19 5 -12 2 6 2 18 0 25 -3 6 -5 1 -5 -13z"/>
<path d="M1374 758 l-19 -23 23 19 c21 18 27 26 19 26 -2 0 -12 -10 -23 -22z"/>
<path d="M1656 758 c10 -14 21 -24 23 -22 3 3 -6 15 -18 27 l-24 22 19 -27z"/>
<path d="M2568 765 c5 -11 12 -27 15 -35 5 -13 6 -13 6 1 1 8 -6 24 -15 35
-15 19 -15 19 -6 -1z"/>
<path d="M395 760 c3 -6 15 -10 25 -10 16 0 15 -3 -8 -27 -15 -16 -30 -24 -33
-20 -10 14 -19 -21 -17 -66 l1 -42 7 50 c4 28 8 41 9 30 1 -16 5 -13 16 13 9
20 27 38 47 47 l33 13 -30 7 c-16 4 -36 8 -43 11 -7 2 -10 -1 -7 -6z"/>
<path d="M473 763 c9 -2 23 -2 30 0 6 3 -1 5 -18 5 -16 0 -22 -2 -12 -5z"/>
<path d="M3421 744 c0 -16 4 -38 9 -49 6 -13 7 -5 3 25 -7 53 -13 66 -12 24z"/>
<path d="M578 730 c-12 -18 -13 -18 -33 -2 -20 17 -20 17 -1 -5 10 -13 23 -20
28 -17 6 4 8 -3 4 -17 -6 -20 -5 -21 4 -6 6 9 8 22 5 28 -4 5 -1 16 5 24 7 8
10 15 6 15 -3 0 -11 -9 -18 -20z"/>
<path d="M1534 736 c-3 -8 -4 -31 -2 -52 3 -36 4 -35 8 14 5 53 4 63 -6 38z"/>
<path d="M242 720 c0 -14 2 -19 5 -12 2 6 2 18 0 25 -3 6 -5 1 -5 -13z"/>
<path d="M732 705 c0 -16 2 -22 5 -12 2 9 2 23 0 30 -3 6 -5 -1 -5 -18z"/>
<path d="M2390 694 c0 -21 4 -45 9 -53 5 -8 7 5 4 35 -7 61 -13 70 -13 18z"/>
<path d="M2640 710 c0 -17 -8 -20 -92 -23 l-93 -3 98 -2 97 -2 0 25 c0 14 -2
25 -5 25 -3 0 -5 -9 -5 -20z"/>
<path d="M3011 720 c0 -8 6 -28 14 -45 17 -39 18 -21 0 25 -7 19 -14 28 -14
20z"/>
<path d="M3642 710 c0 -14 2 -19 5 -12 2 6 2 18 0 25 -3 6 -5 1 -5 -13z"/>
<path d="M1360 716 c0 -2 7 -7 16 -10 8 -3 12 -2 9 4 -6 10 -25 14 -25 6z"/>
<path d="M1472 690 c0 -19 2 -27 5 -17 2 9 2 25 0 35 -3 9 -5 1 -5 -18z"/>
<path d="M1682 690 c0 -19 2 -27 5 -17 2 9 2 25 0 35 -3 9 -5 1 -5 -18z"/>
<path d="M1852 690 c0 -19 2 -27 5 -17 2 9 2 25 0 35 -3 9 -5 1 -5 -18z"/>
<path d="M3701 703 c0 -12 -4 -30 -7 -40 -5 -17 -5 -17 6 0 6 10 9 28 7 40 -4
22 -4 22 -6 0z"/>
<path d="M1290 703 c8 -3 24 -13 35 -22 20 -16 20 -16 1 7 -11 12 -26 22 -35
21 -14 0 -14 -1 -1 -6z"/>
<path d="M173 650 c0 -25 2 -35 4 -22 2 12 2 32 0 45 -2 12 -4 2 -4 -23z"/>
<path d="M803 655 c0 -22 2 -30 4 -17 2 12 2 30 0 40 -3 9 -5 -1 -4 -23z"/>
<path d="M2184 668 l-19 -23 23 19 c21 18 27 26 19 26 -2 0 -12 -10 -23 -22z"/>
<path d="M2285 666 c10 -14 19 -26 22 -26 7 0 -17 39 -28 46 -6 3 -3 -5 6 -20z"/>
<path d="M3081 683 c-1 -17 16 -25 25 -12 4 7 3 9 -4 5 -5 -3 -13 0 -15 6 -4
9 -6 10 -6 1z"/>
<path d="M3556 672 c-15 -17 -15 -21 -1 -32 19 -15 11 -30 -18 -31 -18 -1 -18
-2 -4 -6 10 -3 25 1 33 8 13 10 13 14 -1 29 -13 14 -13 19 -2 29 11 8 18 6 32
-9 14 -15 21 -17 32 -9 7 6 13 17 13 23 0 6 -5 3 -11 -7 -10 -18 -12 -18 -33
2 -22 21 -23 21 -40 3z"/>
<path d="M234 585 c0 -55 1 -76 3 -47 2 29 2 74 0 100 -2 26 -3 2 -3 -53z"/>
<path d="M588 668 c-4 -9 -4 -27 -1 -40 4 -18 3 -20 -6 -8 -9 13 -11 13 -11 1
0 -8 -10 -26 -22 -40 -14 -16 -15 -19 -4 -9 19 16 20 16 30 -4 7 -13 25 -25
44 -29 17 -3 38 -10 45 -15 7 -5 4 -1 -6 9 -11 9 -30 17 -43 17 -31 0 -38 15
-24 50 6 15 10 41 8 56 -2 22 -5 25 -10 12z"/>
<path d="M1730 657 c0 -32 -27 -67 -64 -83 -20 -9 -25 -13 -12 -14 27 0 86 63
86 94 0 14 -2 26 -5 26 -3 0 -5 -10 -5 -23z"/>
<path d="M3370 672 c-1 -39 83 -120 112 -109 9 4 7 6 -4 6 -24 1 -79 51 -94
86 -7 16 -13 24 -14 17z"/>
<path d="M743 590 c0 -47 2 -66 4 -42 2 23 2 61 0 85 -2 23 -4 4 -4 -43z"/>
<path d="M2230 650 c6 -11 13 -20 16 -20 2 0 0 9 -6 20 -6 11 -13 20 -16 20
-2 0 0 -9 6 -20z"/>
<path d="M420 645 c0 -8 5 -15 10 -15 6 0 10 7 10 15 0 8 -4 15 -10 15 -5 0
-10 -7 -10 -15z"/>
<path d="M465 651 c-6 -11 9 -23 19 -14 9 9 7 23 -3 23 -6 0 -12 -4 -16 -9z"/>
<path d="M512 649 c2 -6 8 -10 13 -10 5 0 11 4 13 10 2 6 -4 11 -13 11 -9 0
-15 -5 -13 -11z"/>
<path d="M1342 630 c0 -19 2 -27 5 -17 2 9 2 25 0 35 -3 9 -5 1 -5 -18z"/>
<path d="M1800 647 c0 -24 63 -87 87 -87 11 0 5 6 -17 18 -20 10 -42 32 -52
52 -12 22 -18 28 -18 17z"/>
<path d="M2451 649 c-1 -9 9 -24 22 -35 22 -19 22 -19 6 1 -9 11 -19 27 -22
35 -5 13 -6 13 -6 -1z"/>
<path d="M1403 615 c0 -22 2 -30 4 -17 2 12 2 30 0 40 -3 9 -5 -1 -4 -23z"/>
<path d="M1656 622 l-19 -27 24 22 c12 12 21 24 18 27 -2 2 -13 -8 -23 -22z"/>
<path d="M1860 643 c0 -21 48 -55 72 -50 21 4 21 4 -4 6 -16 0 -35 12 -47 27
-12 15 -21 22 -21 17z"/>
<path d="M1975 624 c-9 -15 -12 -23 -6 -20 11 7 35 46 28 46 -3 0 -12 -12 -22
-26z"/>
<path d="M2030 619 c-8 -18 -26 -37 -44 -45 -17 -7 -25 -13 -18 -14 24 0 52
20 68 51 8 17 13 33 11 35 -2 3 -10 -10 -17 -27z"/>
<path d="M3469 631 c13 -12 28 -21 34 -21 12 0 11 0 -28 24 l-30 17 24 -20z"/>
<path d="M2574 618 l-19 -23 22 19 c13 11 31 16 43 13 11 -3 20 -1 20 4 0 18
-47 8 -66 -13z"/>
<path d="M3047 622 c14 -63 15 -63 46 -60 17 2 32 9 33 16 1 7 0 8 -3 2 -2 -5
-15 -10 -27 -10 -17 0 -28 10 -38 33 -8 17 -13 26 -11 19z"/>
<path d="M3670 620 c-6 -11 -8 -20 -6 -20 3 0 10 9 16 20 6 11 8 20 6 20 -3 0
-10 -9 -16 -20z"/>
<path d="M380 622 c0 -8 13 -27 29 -43 16 -16 25 -29 19 -29 -6 0 -8 -3 -4 -7
4 -4 31 -10 59 -13 l52 -5 6 -49 c5 -46 26 -76 53 -76 6 0 2 6 -9 12 -29 16
-35 28 -35 69 0 46 -19 62 -71 62 -22 0 -35 3 -29 7 9 5 6 10 -9 15 -12 4 -31
21 -42 38 -10 18 -19 26 -19 19z"/>
<path d="M1564 606 c11 -9 31 -16 45 -15 24 1 24 2 -5 8 -17 4 -37 11 -45 15
-8 4 -5 0 5 -8z"/>
<path d="M2266 593 c16 -29 23 -33 59 -31 40 1 40 1 5 5 -22 2 -44 14 -59 31
l-23 27 18 -32z"/>
<path d="M2430 595 c13 -14 26 -25 28 -25 3 0 -5 11 -18 25 -13 14 -26 25 -28
25 -3 0 5 -11 18 -25z"/>
<path d="M2610 595 c-7 -8 -27 -19 -44 -24 -24 -7 -26 -9 -9 -10 12 -1 35 10
50 24 15 13 25 25 22 25 -4 0 -12 -7 -19 -15z"/>
<path d="M2513 593 c9 -2 23 -2 30 0 6 3 -1 5 -18 5 -16 0 -22 -2 -12 -5z"/>
<path d="M2730 594 c0 -19 28 -36 52 -31 21 4 20 4 -4 6 -15 0 -32 9 -37 19
-6 9 -11 12 -11 6z"/>
<path d="M340 580 c-23 -7 -23 -8 -3 -9 12 -1 25 4 28 9 3 6 5 10 3 9 -2 -1
-14 -5 -28 -9z"/>
<path d="M803 530 c0 -36 2 -50 4 -32 2 17 2 47 0 65 -2 17 -4 3 -4 -33z"/>
<path d="M1510 586 c0 -2 7 -7 16 -10 8 -3 12 -2 9 4 -6 10 -25 14 -25 6z"/>
<path d="M1350 568 c0 -4 16 -8 35 -8 19 0 35 2 35 4 0 2 -16 6 -35 8 -19 2
-35 0 -35 -4z"/>
<path d="M3595 569 c-16 -7 -14 -8 9 -4 21 5 35 0 53 -16 22 -21 24 -22 40 -6
14 14 15 19 4 29 -10 11 -11 10 -6 -3 10 -27 -14 -33 -39 -10 -24 23 -31 24
-61 10z"/>
<path d="M297 563 c-19 -19 1 -73 27 -73 5 0 2 6 -9 13 -12 10 -16 22 -13 40
6 29 5 31 -5 20z"/>
<path d="M2478 563 c6 -2 18 -2 25 0 6 3 1 5 -13 5 -14 0 -19 -2 -12 -5z"/>
<path d="M2913 563 c9 -2 25 -2 35 0 9 3 1 5 -18 5 -19 0 -27 -2 -17 -5z"/>
<path d="M385 550 c-3 -6 1 -7 9 -4 18 7 21 14 7 14 -6 0 -13 -4 -16 -10z"/>
<path d="M3523 553 c9 -2 25 -2 35 0 9 3 1 5 -18 5 -19 0 -27 -2 -17 -5z"/>
<path d="M173 490 c0 -25 2 -35 4 -22 2 12 2 32 0 45 -2 12 -4 2 -4 -23z"/>
<path d="M370 517 c0 -8 -8 -18 -17 -20 -17 -4 -17 -5 0 -6 18 -1 35 25 23 36
-3 4 -6 -1 -6 -10z"/>
<path d="M680 473 c0 -33 -8 -46 -35 -61 -11 -6 -14 -12 -7 -12 22 0 52 39 52
70 0 17 -2 30 -5 30 -3 0 -5 -12 -5 -27z"/>
<path d="M732 475 c0 -16 2 -22 5 -12 2 9 2 23 0 30 -3 6 -5 -1 -5 -18z"/>
<path d="M242 460 c0 -14 2 -19 5 -12 2 6 2 18 0 25 -3 6 -5 1 -5 -13z"/>
<path d="M792 425 c0 -16 2 -22 5 -12 2 9 2 23 0 30 -3 6 -5 -1 -5 -18z"/>
<path d="M182 420 c0 -14 2 -19 5 -12 2 6 2 18 0 25 -3 6 -5 1 -5 -13z"/>
<path d="M717 408 c-4 -20 -13 -39 -20 -41 -9 -4 -9 -6 1 -6 14 -1 34 45 29
68 -2 9 -6 -1 -10 -21z"/>
<path d="M75 390 c-21 -22 -37 -41 -34 -43 2 -2 21 16 43 40 49 54 43 56 -9 3z"/>
<path d="M251 420 c0 -8 4 -22 9 -30 12 -18 12 -2 0 25 -6 13 -9 15 -9 5z"/>
<path d="M896 389 c21 -25 41 -44 44 -42 2 2 -16 23 -40 46 l-44 42 40 -46z"/>
<path d="M121 389 c0 -13 4 -33 9 -44 7 -14 8 -8 3 20 -7 46 -13 59 -12 24z"/>
<path d="M852 385 c0 -16 2 -22 5 -12 2 9 2 23 0 30 -3 6 -5 -1 -5 -18z"/>
<path d="M191 380 c0 -8 4 -24 9 -35 5 -13 9 -14 9 -5 0 8 -4 24 -9 35 -5 13
-9 14 -9 5z"/>
<path d="M781 374 c0 -11 3 -14 6 -6 3 7 2 16 -1 19 -3 4 -6 -2 -5 -13z"/>
<path d="M30 313 c0 -10 -3 -28 -6 -40 -6 -22 -4 -23 70 -23 42 0 76 3 76 8 0
4 -31 6 -69 4 l-70 -4 6 36 c3 20 3 36 -1 36 -3 0 -6 -8 -6 -17z"/>
<path d="M140 315 c0 -5 5 -17 10 -25 5 -8 10 -10 10 -5 0 6 -5 17 -10 25 -5
8 -10 11 -10 5z"/>
<path d="M210 315 c0 -5 5 -17 10 -25 5 -8 10 -10 10 -5 0 6 -5 17 -10 25 -5
8 -10 11 -10 5z"/>
<path d="M747 285 c-9 -19 -15 -35 -12 -35 7 0 37 61 33 66 -3 2 -12 -12 -21
-31z"/>
<path d="M822 295 c-19 -42 -15 -45 61 -43 l72 2 -67 3 c-38 2 -68 6 -68 9 0
3 5 14 11 26 6 11 9 22 6 24 -2 2 -9 -7 -15 -21z"/>
<path d="M942 300 c0 -14 2 -19 5 -12 2 6 2 18 0 25 -3 6 -5 1 -5 -13z"/>
<path d="M288 284 c-16 -8 -28 -17 -28 -20 0 -2 10 1 23 8 14 9 83 15 202 18
l180 6 -175 2 c-139 1 -181 -2 -202 -14z"/>
<path d="M671 286 c2 -2 15 -9 29 -15 24 -11 24 -11 6 3 -16 13 -49 24 -35 12z"/>
<path d="M394 235 c-4 -9 -4 -19 0 -22 3 -4 6 1 6 10 0 15 13 17 89 17 63 0
91 -4 94 -12 2 -8 3 -7 3 2 -2 23 -184 28 -192 5z"/>
<path d="M571 193 c-1 -6 -4 -20 -7 -30 -5 -17 -5 -17 6 0 6 10 9 23 6 30 -3
9 -5 9 -5 0z"/>
<path d="M519 87 l-26 -32 -24 20 -24 19 22 -24 c22 -24 22 -24 44 -4 19 17
44 54 37 54 -2 0 -15 -15 -29 -33z"/>
</g>
</svg>
